<mxfile host="app.diagrams.net" modified="2021-08-13T09:30:04.123Z" agent="5.0 (Windows NT 10.0; Win64; x64) AppleWebKit/537.36 (KHTML, like Gecko) Chrome/92.0.4515.131 Safari/537.36" etag="OvBesksZz8S3qmsVxZbV" version="14.9.5" type="github">
  <diagram id="6IFGac0F7_Hr3fZrkGQc" name="第 1 页">
    <mxGraphModel dx="1278" dy="547" grid="1" gridSize="10" guides="1" tooltips="1" connect="1" arrows="1" fold="1" page="1" pageScale="1" pageWidth="827" pageHeight="1169" math="0" shadow="0">
      <root>
        <mxCell id="0" />
        <mxCell id="1" parent="0" />
        <mxCell id="HR1HwPMurGOR2IZVcr8k-1" value="用户端 监控" style="rounded=0;whiteSpace=wrap;html=1;" vertex="1" parent="1">
          <mxGeometry x="70" y="90" width="120" height="40" as="geometry" />
        </mxCell>
        <mxCell id="HR1HwPMurGOR2IZVcr8k-3" value="业务监控" style="rounded=0;whiteSpace=wrap;html=1;" vertex="1" parent="1">
          <mxGeometry x="234" y="90" width="120" height="40" as="geometry" />
        </mxCell>
        <mxCell id="HR1HwPMurGOR2IZVcr8k-4" value="服务层监控" style="rounded=0;whiteSpace=wrap;html=1;" vertex="1" parent="1">
          <mxGeometry x="400" y="90" width="120" height="40" as="geometry" />
        </mxCell>
        <mxCell id="HR1HwPMurGOR2IZVcr8k-5" value="基础资源监控" style="rounded=0;whiteSpace=wrap;html=1;" vertex="1" parent="1">
          <mxGeometry x="570" y="90" width="120" height="40" as="geometry" />
        </mxCell>
        <mxCell id="HR1HwPMurGOR2IZVcr8k-6" value="&lt;ul&gt;&lt;li&gt;请求吞吐量&lt;/li&gt;&lt;li&gt;APP/HUT/TBOX在线用户数&lt;/li&gt;&lt;li&gt;返回码&lt;/li&gt;&lt;li&gt;错误率&lt;/li&gt;&lt;li&gt;慢请求&lt;/li&gt;&lt;li&gt;响应时间&lt;/li&gt;&lt;/ul&gt;" style="rounded=0;whiteSpace=wrap;html=1;align=left;" vertex="1" parent="1">
          <mxGeometry x="60" y="150" width="150" height="160" as="geometry" />
        </mxCell>
        <mxCell id="HR1HwPMurGOR2IZVcr8k-8" value="&lt;ul&gt;&lt;li&gt;访问量&amp;amp;错误数&lt;/li&gt;&lt;li&gt;Profile监控&lt;/li&gt;&lt;li&gt;分布耗时&lt;/li&gt;&lt;li&gt;Trace监控&lt;/li&gt;&lt;li&gt;业务日志&lt;/li&gt;&lt;/ul&gt;" style="rounded=0;whiteSpace=wrap;html=1;align=left;" vertex="1" parent="1">
          <mxGeometry x="230" y="150" width="140" height="160" as="geometry" />
        </mxCell>
        <mxCell id="HR1HwPMurGOR2IZVcr8k-9" value="&lt;ul&gt;&lt;li&gt;后端资源&lt;/li&gt;&lt;li&gt;进程&amp;amp;端口&lt;/li&gt;&lt;li&gt;服务组件性能&lt;/li&gt;&lt;/ul&gt;" style="rounded=0;whiteSpace=wrap;html=1;align=left;" vertex="1" parent="1">
          <mxGeometry x="400" y="150" width="130" height="160" as="geometry" />
        </mxCell>
        <mxCell id="HR1HwPMurGOR2IZVcr8k-10" value="&lt;ul&gt;&lt;li&gt;容器集群&lt;/li&gt;&lt;li&gt;负责均衡&lt;/li&gt;&lt;li&gt;NAT网关&lt;/li&gt;&lt;li&gt;专线&lt;/li&gt;&lt;li&gt;云主机&lt;/li&gt;&lt;/ul&gt;" style="rounded=0;whiteSpace=wrap;html=1;align=left;" vertex="1" parent="1">
          <mxGeometry x="560" y="150" width="130" height="160" as="geometry" />
        </mxCell>
      </root>
    </mxGraphModel>
  </diagram>
</mxfile>
